<svg xmlns="http://www.w3.org/2000/svg" xmlns:xlink="http://www.w3.org/1999/xlink" width="474.003" height="109.335" viewBox="0 0 474.003 109.335">
  <defs>
    <linearGradient id="linear-gradient" x1="-1.269" y1="1.199" x2="-1.287" y2="0.725" gradientUnits="objectBoundingBox">
      <stop offset="0" stop-color="#289238"/>
      <stop offset="1" stop-color="#a0e21e"/>
    </linearGradient>
  </defs>
  <g id="Group_4472" data-name="Group 4472" transform="translate(-2215 -633)">
    <g id="Group_4471" data-name="Group 4471" transform="translate(2328.171 430.601)">
      <g id="Group_4457" data-name="Group 4457" transform="translate(196.851 217.399)">
        <path id="Path_1767" data-name="Path 1767" d="M213.365,217.667c.637.046,1.259.077,1.9.077.622,0,1.244-.031,1.865-.077l-.155.528c-1.026.047-1.166.233-1.648,1.944l-.871,2.97,3-2.457c.5-.42,1.353-1.12,1.757-1.54.327-.311.358-.42.358-.544,0-.3-.156-.311-.9-.389l.14-.513c.606.046,1.213.077,1.819.077.591,0,1.166-.031,1.757-.077l-.141.513a2.565,2.565,0,0,0-1.244.482c-.218.14-.513.342-1.99,1.508l-2.488,1.99,2.115,4.292c.824,1.6,1.042,1.726,2.13,1.773l-.14.513c-.653-.031-1.322-.062-1.99-.062-.684,0-1.368.031-2.053.062l.156-.5c.606-.031,1.011-.046,1.011-.466a4.323,4.323,0,0,0-.4-1.119l-1.819-3.716L214.2,224l-.778,2.783a2.825,2.825,0,0,0-.171.824c0,.559.373.591,1.073.637l-.14.5c-.591-.031-1.213-.062-1.819-.062-.638,0-1.275.031-1.913.062l.155-.513c.964-.078,1.073-.124,1.462-1.415l.436-1.43,1.508-5.271a5.194,5.194,0,0,0,.28-1.29c0-.591-.5-.606-1.088-.638Z" transform="translate(-210.457 -217.526)" fill="#fff"/>
        <path id="Path_1768" data-name="Path 1768" d="M233.832,230.645c-.513.513-1.85,1.8-3,1.8-.545,0-1.166-.358-1.166-1.648a6.456,6.456,0,0,1,1.291-3.67,4.147,4.147,0,0,1,2.736-1.819c.56,0,.84.4.84.979a1.6,1.6,0,0,1-.575,1.26,15.15,15.15,0,0,1-2.939,1.757,4.572,4.572,0,0,0-.093.98c0,.575.062,1.29.638,1.29.7,0,1.446-.73,1.975-1.244Zm-.373-4.183c0-.311-.109-.5-.342-.5a1.048,1.048,0,0,0-.653.358,5.248,5.248,0,0,0-1.322,2.425C232.557,228.017,233.459,227.535,233.459,226.462Z" transform="translate(-219.586 -221.16)" fill="#fff"/>
        <path id="Path_1769" data-name="Path 1769" d="M238.187,227.237a9.208,9.208,0,0,1,1.337-1.353c.607-.482.871-.513.995-.513.482,0,.5.482.5.7a4.339,4.339,0,0,1-.031.451c-.015.187-.124.793-.2,1.182.109-.2.591-.886.653-.979.886-1.166,1.493-1.337,1.71-1.337.031,0,.42.016.42.389,0,.4-.4,1.135-.777,1.135h-.078a2.106,2.106,0,0,0-.4-.124c-.513,0-1.259,1.2-1.415,1.477a16.654,16.654,0,0,0-1.509,4.074,6.324,6.324,0,0,0-1.182.14l-.062-.078c.264-.684,1.834-4.82,1.834-5.753,0-.078-.016-.264-.2-.264-.358,0-1.042.84-1.29,1.12Z" transform="translate(-223.614 -221.188)" fill="#fff"/>
        <path id="Path_1770" data-name="Path 1770" d="M246.568,227.28c.575-.715,1.493-1.85,2.348-1.85.373,0,.576.234.576.669a6.141,6.141,0,0,1-.42,1.695c-.14.374-.3.762-.436,1.135.155-.264.917-1.275,1.073-1.461,1.135-1.415,2.286-2.037,2.954-2.037a.65.65,0,0,1,.716.747c0,.528-.156.855-1.493,3.716a7.293,7.293,0,0,0-.591,1.57c0,.047.016.156.109.156.186,0,.761-.342,1.492-1.182l.326.3c-.249.264-.56.575-.777.778a3.265,3.265,0,0,1-1.835,1.01.547.547,0,0,1-.575-.606c0-.917,2.146-4.649,2.146-5.411,0-.14-.062-.2-.2-.2-.342,0-1.43.716-2.628,2.411a16.069,16.069,0,0,0-1.913,3.669l-1.119.14-.031-.062c.2-.5.4-1.011.607-1.508a30.272,30.272,0,0,0,1.461-4.261c0-.14-.046-.264-.186-.264-.3,0-.84.622-1.275,1.135Z" transform="translate(-227.487 -221.216)" fill="#fff"/>
        <path id="Path_1771" data-name="Path 1771" d="M275.63,225.687a23.4,23.4,0,0,0-.777,2.581,13.2,13.2,0,0,0-1.368.218,10.643,10.643,0,0,1-1.975.249c-3.3,0-4.183-2.488-4.183-4.4a7.262,7.262,0,0,1,2.332-5.3,6.018,6.018,0,0,1,4.276-1.633,8.543,8.543,0,0,1,3.638.855,14.739,14.739,0,0,0-.668,2.332h-.56a4.586,4.586,0,0,0,.093-.808c0-1.478-1.461-1.757-2.286-1.757a4.722,4.722,0,0,0-4.011,2.286,7.107,7.107,0,0,0-1.353,4.136c0,3.638,2.706,3.685,3.063,3.685a3.176,3.176,0,0,0,1.819-.575,3.682,3.682,0,0,0,1.368-1.882Z" transform="translate(-237.486 -217.399)" fill="#fff"/>
        <path id="Path_1772" data-name="Path 1772" d="M289.522,227.654c0,1.944-1.586,4.82-3.888,4.82a1.914,1.914,0,0,1-1.975-2.177c0-2.053,1.617-4.836,3.872-4.9A2,2,0,0,1,289.522,227.654Zm-4.649,2.908c0,.2,0,1.415.886,1.415,1.4,0,2.55-2.923,2.55-4.7,0-.715-.218-1.446-1-1.384C285.728,226.037,284.873,229.333,284.873,230.562Z" transform="translate(-245.249 -221.201)" fill="#fff"/>
        <path id="Path_1773" data-name="Path 1773" d="M295.574,227.07c.762-.777,1.742-1.788,2.612-1.788a.437.437,0,0,1,.513.451c0,.746-2.084,4.6-2.084,5.287,0,.187.14.187.156.187.466,0,3.312-3.281,4.462-5.769l1.088-.155.016.047a41.024,41.024,0,0,0-1.944,4.991,4.347,4.347,0,0,0-.2.948.139.139,0,0,0,.14.156c.3,0,.9-.684,1.322-1.2l.342.264A7.7,7.7,0,0,1,300.487,232a2.346,2.346,0,0,1-1.073.482c-.264,0-.451-.124-.451-.42a18.408,18.408,0,0,1,1.275-4.074,25.74,25.74,0,0,1-1.928,2.519c-.995,1.166-1.881,1.944-2.612,1.944a.472.472,0,0,1-.482-.513,2.88,2.88,0,0,1,.2-.824,47.778,47.778,0,0,0,1.928-4.68c0-.109-.062-.14-.124-.14-.358,0-1.042.746-1.353,1.073Z" transform="translate(-250.741 -221.146)" fill="#fff"/>
        <path id="Path_1774" data-name="Path 1774" d="M308.327,227.28c.575-.715,1.492-1.85,2.348-1.85.373,0,.575.234.575.669a6.161,6.161,0,0,1-.419,1.695c-.141.374-.3.762-.436,1.135.156-.264.918-1.275,1.073-1.461,1.135-1.415,2.286-2.037,2.954-2.037a.651.651,0,0,1,.716.747c0,.528-.156.855-1.493,3.716a7.266,7.266,0,0,0-.591,1.57c0,.047.016.156.109.156.187,0,.762-.342,1.493-1.182l.326.3c-.249.264-.56.575-.777.778a3.266,3.266,0,0,1-1.835,1.01.547.547,0,0,1-.576-.606c0-.917,2.146-4.649,2.146-5.411,0-.14-.062-.2-.2-.2-.342,0-1.43.716-2.628,2.411a16.069,16.069,0,0,0-1.913,3.669l-1.12.14-.031-.062c.2-.5.4-1.011.607-1.508a30.268,30.268,0,0,0,1.461-4.261c0-.14-.047-.264-.186-.264-.3,0-.84.622-1.275,1.135Z" transform="translate(-256.839 -221.216)" fill="#fff"/>
        <path id="Path_1775" data-name="Path 1775" d="M324.367,222.181a9.332,9.332,0,0,0,1.259-.218l.062.109c-.28.653-.389.949-.7,1.773.56,0,.7,0,1.368-.015l-.28.544c-.56-.016-.622-.031-1.228-.031-.342.948-.949,2.877-1.213,3.7a8.784,8.784,0,0,0-.4,1.617c0,.2.093.28.249.28a3.662,3.662,0,0,0,1.461-1.166l.3.3c-.42.436-1.71,1.757-2.6,1.757A.634.634,0,0,1,322,230.1a7.643,7.643,0,0,1,.466-1.975l1.259-3.794-.871.016.233-.529.809.016Z" transform="translate(-263.473 -219.568)" fill="#fff"/>
        <path id="Path_1776" data-name="Path 1776" d="M328.074,232.1l.186-.234a8.563,8.563,0,0,0,1.726-4.338,1.314,1.314,0,0,0-.249-.84c-.249-.326-.28-.373-.28-.559a.707.707,0,0,1,.7-.7c.187,0,.716.093.716,1.073a11.29,11.29,0,0,1-2.566,6.079c-1.912,2.441-4.089,3.452-5.473,3.452-.9,0-.948-.576-.948-.7a.69.69,0,0,1,.7-.669.588.588,0,0,1,.576.342.512.512,0,0,0,.528.326,3.45,3.45,0,0,0,2.146-1.073c.964-.964,1.368-2.068,1.368-4.354a9.558,9.558,0,0,0-.28-2.565c-.171-.653-.358-.809-.575-.809-.42,0-.793.746-1.011,1.2l-.373-.171c.264-.56,1.026-2.13,1.9-2.13,1.431,0,1.431,4.1,1.431,4.276a14.565,14.565,0,0,1-.125,1.835Z" transform="translate(-263.416 -221.216)" fill="#fff"/>
      </g>
      <g id="Group_4458" data-name="Group 4458" transform="translate(230.285 282.7)">
        <path id="Path_1777" data-name="Path 1777" d="M283.457,346.238a9.366,9.366,0,0,1-1.042,4.09,5.715,5.715,0,0,1-4.913,3.4,3.425,3.425,0,0,1-2.053-.607,3.816,3.816,0,0,1-1.275-3.219,9.084,9.084,0,0,1,1.042-4.167,5.735,5.735,0,0,1,4.851-3.39C282.1,342.335,283.457,343.735,283.457,346.238Zm-5.862-1.834a10.27,10.27,0,0,0-2.021,5.955c0,.669.062,2.8,1.913,2.8,2.534,0,4.6-4.354,4.6-7.463,0-.482,0-2.768-1.975-2.706A3.5,3.5,0,0,0,277.595,344.4Z" transform="translate(-274.174 -342.086)" fill="#fff"/>
        <path id="Path_1778" data-name="Path 1778" d="M289.833,346.565a10.813,10.813,0,0,1,1.228-2.924,3.321,3.321,0,0,1,2.861-1.617c.234,0,1.244.016,1.244.591,0,.311-.264.808-.607.808a.51.51,0,0,1-.342-.14,2.256,2.256,0,0,1-.373-.388.721.721,0,0,0-.591-.28c-1.2,0-1.819,2.161-2.3,3.934l1.617-.031-.311.576-1.446-.031-1.119,4.229a19.741,19.741,0,0,1-1.026,3.25,3.686,3.686,0,0,1-3.25,2.472c-.7,0-1.228-.264-1.228-.653,0-.233.249-.793.653-.793.373,0,.466.326.622.544a.64.64,0,0,0,.56.311c.933,0,1.461-1.431,1.648-1.928.28-.793.56-1.726,2.037-7.432l-1.1.015.14-.559Z" transform="translate(-278.934 -341.931)" fill="#fff"/>
        <path id="Path_1779" data-name="Path 1779" d="M295.759,346.565a10.813,10.813,0,0,1,1.228-2.924,3.321,3.321,0,0,1,2.861-1.617c.233,0,1.244.016,1.244.591,0,.311-.264.808-.607.808a.509.509,0,0,1-.342-.14,2.239,2.239,0,0,1-.374-.388.72.72,0,0,0-.591-.28c-1.2,0-1.819,2.161-2.3,3.934l1.617-.031-.311.576-1.446-.031-1.12,4.229a19.683,19.683,0,0,1-1.026,3.25,3.685,3.685,0,0,1-3.249,2.472c-.7,0-1.229-.264-1.229-.653,0-.233.249-.793.653-.793.373,0,.466.326.622.544a.64.64,0,0,0,.56.311c.933,0,1.461-1.431,1.648-1.928.28-.793.56-1.726,2.037-7.432l-1.1.015.14-.559Z" transform="translate(-281.75 -341.931)" fill="#fff"/>
        <path id="Path_1780" data-name="Path 1780" d="M303.969,348.234c1.353-1.322,2.13-1.54,2.5-1.54a.431.431,0,0,1,.466.466,1.831,1.831,0,0,1-.14.56c-.172.451-1.058,2.628-1.26,3.126a9.7,9.7,0,0,0-.606,1.928.156.156,0,0,0,.171.171,4.026,4.026,0,0,0,1.384-1.057l.3.28c-.575.576-1.633,1.6-2.612,1.6a.46.46,0,0,1-.513-.514,1.84,1.84,0,0,1,.078-.5c.218-.809,1.835-4.462,1.835-4.991a.121.121,0,0,0-.14-.124c-.249,0-.793.529-1.166.887Zm3.841-5.038a.869.869,0,0,1-.824.886.611.611,0,0,1-.638-.638.86.86,0,0,1,.84-.886A.588.588,0,0,1,307.81,343.2Z" transform="translate(-288.187 -342.185)" fill="#fff"/>
        <path id="Path_1781" data-name="Path 1781" d="M314.338,355.64c-.9.824-1.944,1.8-3.079,1.8-.576,0-1.291-.389-1.291-1.711,0-2.239,2.052-5.411,4.26-5.411.56,0,.886.28.886.622a.875.875,0,0,1-.87.778c-.342,0-.482-.233-.513-.529,0-.124-.016-.218-.218-.218a1.366,1.366,0,0,0-.886.529,6.972,6.972,0,0,0-1.368,3.918c0,.28,0,1.213.746,1.213a2.73,2.73,0,0,0,1.477-.793c.093-.093.311-.28.544-.529Z" transform="translate(-291.186 -345.875)" fill="#fff"/>
        <path id="Path_1782" data-name="Path 1782" d="M322.4,355.655c-.513.513-1.851,1.8-3,1.8-.545,0-1.166-.358-1.166-1.649a6.455,6.455,0,0,1,1.291-3.669,4.146,4.146,0,0,1,2.736-1.819c.56,0,.84.4.84.979a1.6,1.6,0,0,1-.575,1.26,15.152,15.152,0,0,1-2.939,1.757,4.577,4.577,0,0,0-.093.98c0,.575.062,1.29.638,1.29.7,0,1.446-.731,1.975-1.244Zm-.373-4.183c0-.311-.109-.5-.342-.5a1.051,1.051,0,0,0-.653.358,5.25,5.25,0,0,0-1.322,2.426C321.128,353.028,322.03,352.546,322.03,351.473Z" transform="translate(-295.116 -345.875)" fill="#fff"/>
        <path id="Path_1783" data-name="Path 1783" d="M338.054,352.665c0,1.944-1.586,4.82-3.887,4.82a1.915,1.915,0,0,1-1.975-2.177c0-2.052,1.617-4.836,3.872-4.9A2,2,0,0,1,338.054,352.665Zm-4.649,2.907c0,.2,0,1.415.886,1.415,1.4,0,2.55-2.923,2.55-4.7,0-.715-.218-1.446-1-1.384C334.26,351.048,333.405,354.344,333.405,355.573Z" transform="translate(-301.749 -345.917)" fill="#fff"/>
        <path id="Path_1784" data-name="Path 1784" d="M341.777,346.565a10.811,10.811,0,0,1,1.228-2.924,3.322,3.322,0,0,1,2.861-1.617c.233,0,1.244.016,1.244.591,0,.311-.264.808-.607.808a.51.51,0,0,1-.342-.14,2.236,2.236,0,0,1-.373-.388.721.721,0,0,0-.591-.28c-1.2,0-1.819,2.161-2.3,3.934l1.617-.031-.311.576-1.446-.031-1.119,4.229a19.783,19.783,0,0,1-1.026,3.25,3.685,3.685,0,0,1-3.25,2.472c-.7,0-1.228-.264-1.228-.653,0-.233.249-.793.653-.793.374,0,.467.326.622.544a.64.64,0,0,0,.56.311c.933,0,1.461-1.431,1.648-1.928.28-.793.559-1.726,2.037-7.432l-1.1.015.14-.559Z" transform="translate(-303.622 -341.931)" fill="#fff"/>
        <path id="Path_1785" data-name="Path 1785" d="M357.651,342.706q.91.047,1.819.047c.529,0,.933-.015,1.6-.047-.015.327-.031.653-.031.949,0,.327.109,3.281.28,7.79l4.385-6.655a18.872,18.872,0,0,0,1.244-2.084c.451.031.917.047,1.368.047s.918-.015,1.384-.047l-.156.5a1.172,1.172,0,0,0-1.166.544,7.47,7.47,0,0,0-.513,1.8l-.949,4.494c-.078.4-.326,1.6-.389,2.006a2.877,2.877,0,0,0-.047.513c0,.684.622.7,1.073.715l-.124.482c-.668-.031-1.275-.062-1.912-.062s-1.276.031-1.9.062l.14-.5c1.166-.062,1.228-.249,1.742-2.612l1.384-6.562-5.66,8.614a14.2,14.2,0,0,0-.747,1.229h-.4c.016-1.1.016-1.478-.047-2.97l-.249-6.919c-.249.591-1.2,2.846-1.291,3.063-.155.373-.932,2.223-1.1,2.628a16.154,16.154,0,0,0-1.026,2.969c0,.513.575.544,1.135.56l-.124.5c-.56-.046-1.135-.062-1.695-.062-.638,0-1.275.031-1.913.062l.156-.5a1.538,1.538,0,0,0,1.2-.482,20.051,20.051,0,0,0,1.695-3.312l2.115-5.023c.218-.5.187-.793.062-.964-.218-.3-.793-.233-1.509-.3Z" transform="translate(-312.001 -342.255)" fill="#fff"/>
        <path id="Path_1786" data-name="Path 1786" d="M387.957,349.878l.047.047a37.66,37.66,0,0,0-1.851,5.162,4.064,4.064,0,0,0-.155.9c0,.124.047.3.2.3.311,0,1.1-.824,1.446-1.182l.3.28c-.466.544-1.726,1.9-2.565,1.9-.576,0-.576-.684-.576-.824a7.92,7.92,0,0,1,.327-1.8,16.144,16.144,0,0,1-1.291,1.4,4.105,4.105,0,0,1-2.161,1.213c-.544,0-.762-.482-.762-1.042a7.118,7.118,0,0,1,2.3-4.369,3.794,3.794,0,0,1,2.736-1.4,4.212,4.212,0,0,1,.762.078l.2-.544Zm-5.722,5.83c0,.4.14.576.342.576.544,0,1.866-1.493,2.317-2.068a7.138,7.138,0,0,0,1.322-2.768c0-.482-.607-.466-.762-.451C384.038,351.153,382.235,354.4,382.235,355.708Z" transform="translate(-324.904 -345.664)" fill="#fff"/>
        <path id="Path_1787" data-name="Path 1787" d="M393.791,352.247a9.212,9.212,0,0,1,1.337-1.353c.607-.482.871-.513.995-.513.482,0,.5.482.5.7a4.346,4.346,0,0,1-.031.451c-.015.187-.124.793-.2,1.182.109-.2.591-.886.653-.98.887-1.166,1.493-1.337,1.711-1.337.031,0,.42.015.42.388,0,.4-.405,1.135-.778,1.135h-.078a2.1,2.1,0,0,0-.4-.124c-.514,0-1.26,1.2-1.416,1.477a16.667,16.667,0,0,0-1.508,4.073,6.281,6.281,0,0,0-1.182.141l-.062-.078c.264-.684,1.834-4.82,1.834-5.753,0-.078-.015-.264-.2-.264-.358,0-1.042.839-1.29,1.119Z" transform="translate(-331.003 -345.903)" fill="#fff"/>
        <path id="Path_1788" data-name="Path 1788" d="M402.036,357.111l.186-.234a8.556,8.556,0,0,0,1.726-4.338,1.317,1.317,0,0,0-.248-.84c-.249-.326-.28-.373-.28-.56a.707.707,0,0,1,.7-.7c.187,0,.716.093.716,1.073a11.288,11.288,0,0,1-2.565,6.079c-1.913,2.442-4.09,3.452-5.474,3.452-.9,0-.948-.575-.948-.7a.69.69,0,0,1,.7-.668.587.587,0,0,1,.575.342.512.512,0,0,0,.529.326,3.45,3.45,0,0,0,2.146-1.073c.964-.963,1.368-2.067,1.368-4.353a9.542,9.542,0,0,0-.28-2.566c-.171-.653-.357-.808-.575-.808-.42,0-.793.746-1.011,1.2l-.373-.171c.264-.559,1.026-2.13,1.9-2.13,1.43,0,1.43,4.105,1.43,4.276a14.462,14.462,0,0,1-.125,1.834Z" transform="translate(-332.002 -345.931)" fill="#fff"/>
        <path id="Path_1789" data-name="Path 1789" d="M428.774,350.7a23.364,23.364,0,0,0-.778,2.581,13.217,13.217,0,0,0-1.368.218,10.647,10.647,0,0,1-1.975.249c-3.3,0-4.182-2.488-4.182-4.4a7.263,7.263,0,0,1,2.332-5.3,6.014,6.014,0,0,1,4.275-1.632,8.535,8.535,0,0,1,3.638.855,14.732,14.732,0,0,0-.668,2.332h-.56a4.626,4.626,0,0,0,.093-.808c0-1.477-1.462-1.757-2.286-1.757a4.721,4.721,0,0,0-4.012,2.285,7.109,7.109,0,0,0-1.353,4.136c0,3.638,2.705,3.685,3.063,3.685a3.178,3.178,0,0,0,1.819-.575,3.69,3.69,0,0,0,1.368-1.881Z" transform="translate(-343.705 -342.115)" fill="#fff"/>
        <path id="Path_1790" data-name="Path 1790" d="M439.513,361.084a.99.99,0,0,1-.9,1.089.739.739,0,0,1-.747-.824.991.991,0,0,1,.84-1.073A.74.74,0,0,1,439.513,361.084Z" transform="translate(-351.972 -350.605)" fill="#fff"/>
        <path id="Path_1791" data-name="Path 1791" d="M451.1,345.006a6.765,6.765,0,0,0,.264-1.12c0-.576-.451-.607-1.1-.622l.155-.528c.545.031,1.1.062,1.664.062.638,0,1.353-.031,2.068-.031a3.2,3.2,0,0,1,2.223.544,2.172,2.172,0,0,1,.7,1.68,2.773,2.773,0,0,1-.949,2.052,4.745,4.745,0,0,1-1.85.917,2.717,2.717,0,0,1,1.8.762,2.133,2.133,0,0,1,.591,1.57,3.213,3.213,0,0,1-1.26,2.581,5.936,5.936,0,0,1-3.763.886c-.4,0-.809-.015-1.212-.03s-.809-.016-1.214-.016c-.575,0-1.15.047-1.726.078l.156-.513c.98-.031,1.135-.3,1.461-1.384.093-.311.2-.622.3-.932Zm1.384,3.25c-.326,0-.669.015-.98.03l-.793,2.8a9.707,9.707,0,0,0-.373,1.509c0,.545.5.545,1.321.545a3.776,3.776,0,0,0,2.55-.684,2.653,2.653,0,0,0,1.088-2.115C455.3,348.256,453.232,348.256,452.486,348.256Zm-.809-.576a7.156,7.156,0,0,0,2.472-.248,2.31,2.31,0,0,0,1.6-2.24c0-1.166-.777-1.8-2.052-1.8-.249,0-.513.031-.762.047-.233.684-.435,1.368-.638,2.068Z" transform="translate(-356.549 -342.27)" fill="#fff"/>
        <path id="Path_1792" data-name="Path 1792" d="M473.028,349.878l.047.047a37.655,37.655,0,0,0-1.85,5.162,4.064,4.064,0,0,0-.155.9c0,.124.047.3.2.3.31,0,1.1-.824,1.445-1.182l.3.28c-.466.544-1.726,1.9-2.566,1.9-.575,0-.575-.684-.575-.824a7.892,7.892,0,0,1,.326-1.8,16.144,16.144,0,0,1-1.291,1.4,4.105,4.105,0,0,1-2.161,1.213c-.545,0-.762-.482-.762-1.042a7.118,7.118,0,0,1,2.3-4.369,3.8,3.8,0,0,1,2.736-1.4,4.211,4.211,0,0,1,.762.078l.2-.544Zm-5.722,5.83c0,.4.14.576.342.576.544,0,1.866-1.493,2.317-2.068a7.146,7.146,0,0,0,1.322-2.768c0-.482-.607-.466-.762-.451C469.11,351.153,467.307,354.4,467.307,355.708Z" transform="translate(-365.337 -345.664)" fill="#fff"/>
        <path id="Path_1793" data-name="Path 1793" d="M478.862,352.247a9.188,9.188,0,0,1,1.337-1.353c.606-.482.871-.513,1-.513.482,0,.5.482.5.7a4.346,4.346,0,0,1-.031.451c-.015.187-.124.793-.2,1.182.109-.2.591-.886.653-.98.886-1.166,1.492-1.337,1.71-1.337.031,0,.42.015.42.388,0,.4-.4,1.135-.777,1.135h-.078a2.094,2.094,0,0,0-.4-.124c-.513,0-1.26,1.2-1.415,1.477a16.628,16.628,0,0,0-1.509,4.073,6.277,6.277,0,0,0-1.182.141l-.062-.078c.264-.684,1.835-4.82,1.835-5.753,0-.078-.016-.264-.2-.264-.358,0-1.042.839-1.29,1.119Z" transform="translate(-371.435 -345.903)" fill="#fff"/>
        <path id="Path_1794" data-name="Path 1794" d="M491.6,341.987c-.622,1.508-1.228,3.342-2.052,5.893a29.4,29.4,0,0,0-1.275,4.354c0,.233.093.28.218.28.357,0,.995-.638,1.446-1.088l.28.3a8.412,8.412,0,0,1-1.259,1.135,2.591,2.591,0,0,1-1.4.576.506.506,0,0,1-.56-.576,3.183,3.183,0,0,1,.14-.793c.14-.575.248-.948.373-1.353l1.9-5.908a7.539,7.539,0,0,0,.388-1.555c0-.451-.326-.466-1.135-.482l.14-.436a6.337,6.337,0,0,0,2.612-.482Z" transform="translate(-375.322 -341.847)" fill="#fff"/>
        <path id="Path_1795" data-name="Path 1795" d="M498.545,352.665c0,1.944-1.586,4.82-3.887,4.82a1.914,1.914,0,0,1-1.975-2.177c0-2.052,1.617-4.836,3.872-4.9A2,2,0,0,1,498.545,352.665Zm-4.649,2.907c0,.2,0,1.415.886,1.415,1.4,0,2.55-2.923,2.55-4.7,0-.715-.218-1.446-1-1.384C494.751,351.048,493.9,354.344,493.9,355.573Z" transform="translate(-378.026 -345.917)" fill="#fff"/>
        <path id="Path_1796" data-name="Path 1796" d="M508.278,350.635c-.715,1.042-2.41,3.654-2.41,5.208,0,.311.046.825.606.825a2.484,2.484,0,0,0,1.384-.716c.062-3.218,2.208-5.629,3.126-5.629.389,0,.575.342.575.793a3.9,3.9,0,0,1-.373,1.477,10.578,10.578,0,0,1-2.255,2.939c.078.388.234,1.119.917,1.119a1.968,1.968,0,0,0,1.431-.886,7.671,7.671,0,0,0,1.586-3.546c-.062-.155-.124-.311-.171-.466a3.21,3.21,0,0,1-.124-.824.534.534,0,0,1,.124-.389,1.327,1.327,0,0,1,.762-.28c.234.031.342.233.342.824a7.987,7.987,0,0,1-1.042,3.639c-.886,1.508-2.379,2.69-3.638,2.69a1.165,1.165,0,0,1-1.213-.98,3.67,3.67,0,0,1-2.13.98,1.036,1.036,0,0,1-1.12-1.166,3.94,3.94,0,0,1,.5-1.757,27.007,27.007,0,0,1,1.99-3c-.451,0-.917-.016-1.368-.016a3.5,3.5,0,0,0-1.042.078.64.64,0,0,0-.326.544.53.53,0,0,0,.093.295c.171.28.187.311.187.436,0,.358-.467.622-.607.622-.233,0-.4-.436-.4-.731a2.133,2.133,0,0,1,.528-1.2c.746-1.073.793-1.1,1.306-1.1l.9.016c.575,0,1.151-.016,1.726-.016Zm2.457.653c0-.109-.016-.311-.171-.311-.249,0-.576.466-.669.591a5.9,5.9,0,0,0-1.01,3.358A7.112,7.112,0,0,0,510.735,351.288Z" transform="translate(-383.251 -345.846)" fill="#fff"/>
      </g>
      <g id="Group_4459" data-name="Group 4459" transform="translate(262.672 297.48)">
        <path id="Path_1797" data-name="Path 1797" d="M337.216,385.48a.792.792,0,0,1-.721.872.591.591,0,0,1-.6-.66.793.793,0,0,1,.672-.858A.591.591,0,0,1,337.216,385.48Z" transform="translate(-335.897 -377.057)" fill="#fff"/>
        <path id="Path_1798" data-name="Path 1798" d="M341.96,385.48a.792.792,0,0,1-.722.872.591.591,0,0,1-.6-.66.792.792,0,0,1,.672-.858A.591.591,0,0,1,341.96,385.48Z" transform="translate(-338.152 -377.057)" fill="#fff"/>
        <path id="Path_1799" data-name="Path 1799" d="M346.7,385.48a.792.792,0,0,1-.722.872.591.591,0,0,1-.6-.66.793.793,0,0,1,.672-.858A.591.591,0,0,1,346.7,385.48Z" transform="translate(-340.405 -377.057)" fill="#fff"/>
        <path id="Path_1800" data-name="Path 1800" d="M355.147,376.512l.037.037a30.123,30.123,0,0,0-1.481,4.131,3.268,3.268,0,0,0-.124.721c0,.1.037.237.162.237.249,0,.884-.66,1.157-.946l.237.224c-.373.436-1.381,1.519-2.053,1.519-.46,0-.46-.548-.46-.66a6.356,6.356,0,0,1,.261-1.444,12.892,12.892,0,0,1-1.033,1.12,3.285,3.285,0,0,1-1.729.97c-.436,0-.61-.386-.61-.833a5.7,5.7,0,0,1,1.842-3.5,3.037,3.037,0,0,1,2.19-1.12,3.388,3.388,0,0,1,.61.062l.162-.436Zm-4.579,4.665c0,.324.112.461.273.461.436,0,1.493-1.194,1.854-1.655a5.722,5.722,0,0,0,1.057-2.215c0-.385-.485-.373-.61-.36C352.011,377.532,350.568,380.133,350.568,381.177Z" transform="translate(-342.367 -373.103)" fill="#fff"/>
        <path id="Path_1801" data-name="Path 1801" d="M364.193,370.473a4.478,4.478,0,0,0,2.077-.411l.162.075a26.819,26.819,0,0,0-1.008,2.812c-.2.6-1.182,3.521-1.381,4.193a10.3,10.3,0,0,0-.336,1.319c0,.112.037.224.162.224.261,0,.945-.634,1.182-.858l.211.249c-.473.448-1.406,1.269-2.053,1.269-.211,0-.46-.05-.46-.46a5.561,5.561,0,0,1,.336-1.394,7.871,7.871,0,0,1-.759.834,3.046,3.046,0,0,1-1.866,1.033c-.46,0-.634-.374-.634-.833a6.49,6.49,0,0,1,1.232-3.148,3.608,3.608,0,0,1,2.464-1.717.672.672,0,0,1,.672.4,19.025,19.025,0,0,0,.809-2.862c0-.373-.237-.373-.908-.386Zm-2.165,4.827a6.22,6.22,0,0,0-1.182,2.887c0,.4.15.448.274.448.7,0,2.8-2.152,2.8-4.081,0-.311-.1-.535-.4-.5A2.791,2.791,0,0,0,362.028,375.3Z" transform="translate(-347.27 -370.037)" fill="#fff"/>
        <path id="Path_1802" data-name="Path 1802" d="M373.374,377.119c-.56.846-1.891,2.849-1.891,4.131a.634.634,0,0,0,.66.721c1,0,2.115-1.866,2.414-2.912a6.8,6.8,0,0,0,.174-.721c-.05-.087-.087-.187-.137-.286a1.778,1.778,0,0,1-.124-.609.55.55,0,0,1,.112-.386.989.989,0,0,1,.66-.237c.162.013.236.237.236.634a6.063,6.063,0,0,1-1.742,4.057,3.715,3.715,0,0,1-2.3,1.033.867.867,0,0,1-.958-.959,3.447,3.447,0,0,1,.5-1.555,17.951,17.951,0,0,1,1.518-2.227l-.958-.012a3.839,3.839,0,0,0-1.008.062.51.51,0,0,0-.261.423v.012c.013.224.236.435.236.622a.727.727,0,0,1-.46.473c-.224,0-.348-.386-.348-.647a1.362,1.362,0,0,1,.286-.772,3.451,3.451,0,0,1,.883-1,4.169,4.169,0,0,1,.734-.025h1.692Z" transform="translate(-351.958 -373.249)" fill="#fff"/>
        <path id="Path_1803" data-name="Path 1803" d="M384.958,378.742c0,1.555-1.269,3.857-3.111,3.857a1.532,1.532,0,0,1-1.58-1.742c0-1.643,1.294-3.87,3.1-3.92A1.6,1.6,0,0,1,384.958,378.742Zm-3.72,2.327c0,.162,0,1.132.709,1.132,1.12,0,2.041-2.339,2.041-3.758,0-.573-.174-1.157-.8-1.108C381.922,377.448,381.238,380.086,381.238,381.069Z" transform="translate(-356.985 -373.305)" fill="#fff"/>
        <path id="Path_1804" data-name="Path 1804" d="M392.823,381.122a4.215,4.215,0,0,1-2.464,1.444c-.461,0-1.033-.311-1.033-1.369,0-1.791,1.642-4.33,3.409-4.33.448,0,.709.224.709.5a.7.7,0,0,1-.7.622c-.274,0-.386-.186-.411-.423,0-.1-.012-.174-.174-.174a1.09,1.09,0,0,0-.709.423,5.577,5.577,0,0,0-1.1,3.135c0,.224,0,.97.6.97a2.183,2.183,0,0,0,1.182-.634c.075-.075.249-.224.436-.423Z" transform="translate(-361.291 -373.272)" fill="#fff"/>
        <path id="Path_1805" data-name="Path 1805" d="M401.556,376.512l.037.037a30.127,30.127,0,0,0-1.481,4.131,3.27,3.27,0,0,0-.124.721c0,.1.037.237.162.237.249,0,.884-.66,1.158-.946l.236.224c-.373.436-1.381,1.519-2.053,1.519-.46,0-.46-.548-.46-.66a6.3,6.3,0,0,1,.261-1.444,13.033,13.033,0,0,1-1.033,1.12,3.285,3.285,0,0,1-1.73.97c-.436,0-.61-.386-.61-.833a5.7,5.7,0,0,1,1.842-3.5,3.037,3.037,0,0,1,2.19-1.12,3.388,3.388,0,0,1,.61.062l.162-.436Zm-4.579,4.665c0,.324.112.461.273.461.436,0,1.493-1.194,1.854-1.655a5.709,5.709,0,0,0,1.058-2.215c0-.385-.485-.373-.609-.36C398.42,377.532,396.977,380.133,396.977,381.177Z" transform="translate(-364.424 -373.103)" fill="#fff"/>
        <path id="Path_1806" data-name="Path 1806" d="M408.387,374.362a7.415,7.415,0,0,0,1.008-.174l.049.087c-.224.523-.311.759-.559,1.418.448,0,.559,0,1.095-.013l-.224.436c-.448-.012-.5-.025-.983-.025-.274.76-.759,2.3-.971,2.962a7.056,7.056,0,0,0-.323,1.294c0,.161.075.224.2.224a2.937,2.937,0,0,0,1.17-.934l.236.236c-.336.348-1.369,1.406-2.078,1.406a.507.507,0,0,1-.51-.585,6.12,6.12,0,0,1,.373-1.58l1.008-3.036-.7.012.186-.422.648.012Z" transform="translate(-369.451 -371.998)" fill="#fff"/>
        <path id="Path_1807" data-name="Path 1807" d="M414.692,381.135c-.411.41-1.481,1.443-2.4,1.443-.436,0-.934-.286-.934-1.319a5.165,5.165,0,0,1,1.033-2.936,3.317,3.317,0,0,1,2.19-1.456c.448,0,.672.323.672.784a1.279,1.279,0,0,1-.46,1.008,12.129,12.129,0,0,1-2.351,1.406,3.641,3.641,0,0,0-.075.784c0,.461.05,1.033.51,1.033.56,0,1.158-.585,1.58-1Zm-.3-3.347c0-.249-.087-.4-.274-.4a.843.843,0,0,0-.523.286,4.205,4.205,0,0,0-1.058,1.941C413.672,379.032,414.394,378.646,414.394,377.788Z" transform="translate(-371.761 -373.272)" fill="#fff"/>
        <path id="Path_1808" data-name="Path 1808" d="M419.16,382.167a.866.866,0,0,0,.858-.846,2.5,2.5,0,0,0-.373-1.083c-.585-1.1-.709-1.319-.709-1.68a1.825,1.825,0,0,1,1.829-1.667c.511,0,.734.224.734.535a.478.478,0,0,1-.485.485.412.412,0,0,1-.436-.435c-.012-.075-.012-.174-.211-.174a.679.679,0,0,0-.634.684,3.543,3.543,0,0,0,.523,1.356,2.937,2.937,0,0,1,.572,1.493,1.854,1.854,0,0,1-1.854,1.729c-.66,0-1.1-.336-1.1-.784a.47.47,0,0,1,.51-.485.406.406,0,0,1,.448.448C418.825,381.943,418.812,382.167,419.16,382.167Z" transform="translate(-374.861 -373.283)" fill="#fff"/>
        <path id="Path_1809" data-name="Path 1809" d="M427.257,373.861a8.611,8.611,0,0,1,.983-2.339,2.656,2.656,0,0,1,2.289-1.294c.187,0,1,.013,1,.473,0,.249-.211.647-.485.647a.407.407,0,0,1-.274-.112,1.725,1.725,0,0,1-.3-.311.578.578,0,0,0-.473-.224c-.958,0-1.456,1.729-1.841,3.148l1.293-.025-.249.46-1.157-.025-.9,3.384a15.758,15.758,0,0,1-.822,2.6,2.949,2.949,0,0,1-2.6,1.979c-.559,0-.983-.211-.983-.523,0-.187.2-.635.523-.635.3,0,.373.261.5.436a.51.51,0,0,0,.448.249c.747,0,1.17-1.145,1.319-1.543.224-.634.448-1.381,1.63-5.947l-.883.013.112-.448Z" transform="translate(-377.171 -370.116)" fill="#fff"/>
        <path id="Path_1810" data-name="Path 1810" d="M438.2,378.742c0,1.555-1.269,3.857-3.111,3.857a1.531,1.531,0,0,1-1.58-1.742c0-1.643,1.294-3.87,3.1-3.92A1.6,1.6,0,0,1,438.2,378.742Zm-3.72,2.327c0,.162,0,1.132.709,1.132,1.12,0,2.041-2.339,2.041-3.758,0-.573-.174-1.157-.8-1.108C435.161,377.448,434.477,380.086,434.477,381.069Z" transform="translate(-382.289 -373.305)" fill="#fff"/>
        <path id="Path_1811" data-name="Path 1811" d="M442.579,378.408a7.4,7.4,0,0,1,1.07-1.083c.485-.386.7-.41.8-.41.386,0,.4.385.4.559a3.482,3.482,0,0,1-.025.362c-.013.149-.1.634-.162.946.087-.162.473-.709.523-.784.709-.933,1.195-1.07,1.369-1.07.025,0,.335.013.335.311,0,.323-.323.909-.622.909H446.2a1.627,1.627,0,0,0-.324-.1c-.41,0-1.007.958-1.132,1.182a13.328,13.328,0,0,0-1.207,3.26,5,5,0,0,0-.946.112l-.05-.062a29.76,29.76,0,0,0,1.468-4.6c0-.062-.013-.211-.162-.211-.286,0-.834.672-1.033.9Z" transform="translate(-386.583 -373.294)" fill="#fff"/>
        <path id="Path_1812" data-name="Path 1812" d="M461.874,377.168a18.633,18.633,0,0,0-.622,2.065,10.418,10.418,0,0,0-1.1.174,8.511,8.511,0,0,1-1.58.2c-2.637,0-3.347-1.991-3.347-3.521a5.81,5.81,0,0,1,1.866-4.243,4.815,4.815,0,0,1,3.422-1.307,6.833,6.833,0,0,1,2.911.685,11.743,11.743,0,0,0-.535,1.866h-.448a3.686,3.686,0,0,0,.075-.647c0-1.182-1.169-1.406-1.829-1.406a3.778,3.778,0,0,0-3.21,1.83,5.684,5.684,0,0,0-1.082,3.309c0,2.912,2.165,2.949,2.451,2.949a2.545,2.545,0,0,0,1.456-.46,2.949,2.949,0,0,0,1.1-1.506Z" transform="translate(-392.613 -370.263)" fill="#fff"/>
        <path id="Path_1813" data-name="Path 1813" d="M469.714,370.425a5.374,5.374,0,0,0,2.065-.41l.162.1c-.386.983-.535,1.356-1.145,3.31L469.975,376c.1-.124.585-.747.709-.884a3.549,3.549,0,0,1,2.227-1.48c.535,0,.585.485.585.8a7,7,0,0,1-1.8,4.255,1.72,1.72,0,0,1-1.007.647c-.361,0-.5-.411-.5-.572a.259.259,0,0,1,.286-.274.638.638,0,0,1,.149.025,1.028,1.028,0,0,0,.249.1l.075.013c.422,0,.908-1.17,1.119-1.779a6.36,6.36,0,0,0,.423-1.953c0-.286-.05-.51-.261-.51a3.6,3.6,0,0,0-1.642,1.368,8.119,8.119,0,0,0-1.567,3.472,6.259,6.259,0,0,0-.921.087l-.037-.062c.324-.97.436-1.319.61-1.866l1.618-5.151a5.145,5.145,0,0,0,.236-1.07c0-.374-.174-.386-.9-.386Z" transform="translate(-398.71 -370.015)" fill="#fff"/>
        <path id="Path_1814" data-name="Path 1814" d="M478.766,375.2c1.083-1.058,1.7-1.232,2-1.232a.345.345,0,0,1,.374.374,1.461,1.461,0,0,1-.112.448c-.137.361-.846,2.1-1.008,2.5a7.773,7.773,0,0,0-.485,1.543.125.125,0,0,0,.137.137,3.227,3.227,0,0,0,1.107-.846l.236.224c-.46.461-1.306,1.281-2.09,1.281a.367.367,0,0,1-.41-.41,1.46,1.46,0,0,1,.062-.4c.174-.647,1.468-3.571,1.468-3.994a.1.1,0,0,0-.112-.1c-.2,0-.635.423-.934.709Zm3.074-4.031a.7.7,0,0,1-.66.709.489.489,0,0,1-.511-.51.689.689,0,0,1,.672-.71A.471.471,0,0,1,481.84,371.165Z" transform="translate(-403.681 -370.319)" fill="#fff"/>
        <path id="Path_1815" data-name="Path 1815" d="M487.062,370.2c-.5,1.207-.983,2.675-1.642,4.716A23.583,23.583,0,0,0,484.4,378.4c0,.186.075.224.174.224.286,0,.8-.511,1.157-.872l.224.237a6.691,6.691,0,0,1-1.008.908,2.066,2.066,0,0,1-1.12.46.4.4,0,0,1-.448-.46,2.512,2.512,0,0,1,.112-.634c.112-.461.2-.759.3-1.083l1.519-4.728a6.068,6.068,0,0,0,.311-1.244c0-.361-.261-.373-.908-.386l.112-.348a5.067,5.067,0,0,0,2.09-.385Z" transform="translate(-405.992 -370.049)" fill="#fff"/>
        <path id="Path_1816" data-name="Path 1816" d="M492.2,370.473a4.479,4.479,0,0,0,2.078-.411l.162.075a26.58,26.58,0,0,0-1.008,2.812c-.2.6-1.182,3.521-1.381,4.193a10.219,10.219,0,0,0-.336,1.319c0,.112.038.224.162.224.261,0,.946-.634,1.182-.858l.211.249c-.472.448-1.405,1.269-2.053,1.269-.211,0-.46-.05-.46-.46a5.558,5.558,0,0,1,.336-1.394,7.992,7.992,0,0,1-.759.834,3.046,3.046,0,0,1-1.866,1.033c-.461,0-.634-.374-.634-.833a6.484,6.484,0,0,1,1.232-3.148,3.607,3.607,0,0,1,2.464-1.717.671.671,0,0,1,.672.4,19.036,19.036,0,0,0,.809-2.862c0-.373-.237-.373-.908-.386Zm-2.165,4.827a6.224,6.224,0,0,0-1.182,2.887c0,.4.149.448.274.448.7,0,2.8-2.152,2.8-4.081,0-.311-.1-.535-.4-.5A2.793,2.793,0,0,0,490.039,375.3Z" transform="translate(-408.11 -370.037)" fill="#fff"/>
        <path id="Path_1817" data-name="Path 1817" d="M498,378.408a7.368,7.368,0,0,1,1.07-1.083c.485-.386.7-.41.8-.41.386,0,.4.385.4.559a3.473,3.473,0,0,1-.025.362c-.013.149-.1.634-.162.946.087-.162.473-.709.523-.784.709-.933,1.195-1.07,1.369-1.07.025,0,.335.013.335.311,0,.323-.323.909-.622.909h-.062a1.628,1.628,0,0,0-.324-.1c-.41,0-1.007.958-1.132,1.182a13.333,13.333,0,0,0-1.207,3.26,5,5,0,0,0-.945.112l-.05-.062a29.76,29.76,0,0,0,1.468-4.6c0-.062-.013-.211-.162-.211-.286,0-.834.672-1.033.9Z" transform="translate(-412.923 -373.294)" fill="#fff"/>
        <path id="Path_1818" data-name="Path 1818" d="M507.938,381.135c-.411.41-1.481,1.443-2.4,1.443-.436,0-.933-.286-.933-1.319a5.166,5.166,0,0,1,1.032-2.936,3.319,3.319,0,0,1,2.19-1.456c.448,0,.672.323.672.784a1.278,1.278,0,0,1-.46,1.008,12.128,12.128,0,0,1-2.351,1.406,3.606,3.606,0,0,0-.075.784c0,.461.05,1.033.51,1.033.56,0,1.158-.585,1.58-1Zm-.3-3.347c0-.249-.087-.4-.274-.4a.842.842,0,0,0-.523.286,4.2,4.2,0,0,0-1.058,1.941C506.917,379.032,507.639,378.646,507.639,377.788Z" transform="translate(-416.079 -373.272)" fill="#fff"/>
        <path id="Path_1819" data-name="Path 1819" d="M511.419,378.443c.46-.572,1.194-1.481,1.879-1.481.3,0,.461.186.461.535a4.906,4.906,0,0,1-.336,1.356c-.111.3-.236.61-.348.909.125-.211.735-1.021.859-1.17a3.734,3.734,0,0,1,2.364-1.63.521.521,0,0,1,.572.6c0,.422-.124.684-1.195,2.974a5.827,5.827,0,0,0-.473,1.256c0,.037.013.124.087.124.15,0,.61-.273,1.194-.945l.262.236c-.2.211-.448.461-.622.622a2.611,2.611,0,0,1-1.468.809.438.438,0,0,1-.46-.485c0-.735,1.717-3.721,1.717-4.33,0-.112-.05-.162-.162-.162-.274,0-1.145.573-2.1,1.929a12.859,12.859,0,0,0-1.53,2.936l-.9.112-.025-.05c.162-.4.324-.809.485-1.207a24.227,24.227,0,0,0,1.17-3.409c0-.112-.038-.212-.149-.212-.237,0-.672.5-1.02.909Z" transform="translate(-419.212 -373.317)" fill="#fff"/>
      </g>
      <g id="Group_4460" data-name="Group 4460" transform="translate(232.197 251.902)">
        <path id="Path_1820" data-name="Path 1820" d="M279.2,304.349a9.5,9.5,0,0,0,1.281,3.394,3.991,3.991,0,0,0,3.325,1.975,3.844,3.844,0,0,0,3.914-4.087c0-2.46-1.7-4.018-3.568-5.577-2.875-2.425-5.507-4.641-5.507-7.966,0-2.875,1.9-6.1,6.581-6.1a11.38,11.38,0,0,1,3.879.727c.278,2.563.381,3.152.659,4.71l-1.282.174c-.346-1.317-1.074-4.226-3.845-4.226a3.423,3.423,0,0,0-3.429,3.568c0,1.974,1.524,3.359,3.256,4.884,3.533,3.082,5.854,5.091,5.854,8.694,0,3.706-2.6,6.615-6.962,6.615a11.9,11.9,0,0,1-4.468-.866c-.381-2.39-.45-2.875-1.074-5.646Z" transform="translate(-277.818 -284.502)" fill="#fff"/>
        <path id="Path_1821" data-name="Path 1821" d="M313.411,316.406a8.843,8.843,0,0,1-1.247,1.49,5.477,5.477,0,0,1-3.671,1.524c-3.568,0-5.2-3.533-5.2-7.378,0-4.364,2.113-8.625,6.339-8.625,1.87,0,3.464.9,3.464,1.524a1.492,1.492,0,0,1-.312.762c-.416.727-.624,1.074-1.109,1.074-.38,0-.623-.346-.831-.693-.693-1.074-.97-1.489-1.8-1.489-1.766,0-3.048,2.424-3.048,5.819,0,3.464,1.316,7.239,3.775,7.239,1.42,0,2.286-1.178,2.84-1.94Z" transform="translate(-289.928 -292.784)" fill="#fff"/>
        <path id="Path_1822" data-name="Path 1822" d="M320.857,284.988a15.62,15.62,0,0,0,4.191-1.835l.555.242c-.139,1.732-.139,2.043-.173,3.775L325.395,296c1.386-.936,1.8-1.213,3.5-2.183a3.736,3.736,0,0,1,3.014.589,4.13,4.13,0,0,1,1.42,2.944c.069.727.069,1.628.069,6.684,0,.589,0,2.771.035,3.256.1,1.108.8,1.108,1.87,1.143v1.074c-1-.035-2.043-.069-3.048-.069-1.177,0-2.321.035-3.464.069v-1.074c1.524,0,1.94-.173,2.009-1.524,0-.485.035-3.464.035-4.711,0-.9,0-3.6-.1-4.4-.173-1.42-1-2.147-2.009-2.147-.9,0-1.8.554-3.29,1.524-.035,1.87-.069,3.775-.069,5.542,0,.624,0,4.433.138,4.884.242.831.831.831,1.9.831v1.074c-1-.035-2.147-.1-3.256-.1s-2.216.069-3.36.1v-1.074c1.975-.069,1.975-.139,2.009-2.667.035-2.979.035-5.958.035-8.936,0-1.594,0-9.318-.138-10.045-.173-.762-.658-.762-1.836-.762Z" transform="translate(-298.241 -283.153)" fill="#fff"/>
        <path id="Path_1823" data-name="Path 1823" d="M358.917,305.628a9.116,9.116,0,0,1,1.871,5.819c0,4.4-2.287,8.036-5.923,8.036-4.122,0-5.958-4.226-5.958-7.932,0-2.806.97-5.611,3.117-7.1a4.95,4.95,0,0,1,6.893,1.178Zm-7.031,5.577a14.811,14.811,0,0,0,.728,5.022,2.854,2.854,0,0,0,2.424,1.939c2.771,0,2.771-4.987,2.771-6.65,0-1.247,0-6.858-3.152-6.684C353.167,304.935,351.886,306.633,351.886,311.2Z" transform="translate(-311.605 -292.847)" fill="#fff"/>
        <path id="Path_1824" data-name="Path 1824" d="M383.142,305.628a9.117,9.117,0,0,1,1.87,5.819c0,4.4-2.286,8.036-5.923,8.036-4.122,0-5.957-4.226-5.957-7.932,0-2.806.97-5.611,3.117-7.1a4.951,4.951,0,0,1,6.893,1.178Zm-7.031,5.577a14.825,14.825,0,0,0,.727,5.022,2.855,2.855,0,0,0,2.424,1.939c2.772,0,2.772-4.987,2.772-6.65,0-1.247,0-6.858-3.152-6.684C377.392,304.935,376.111,306.633,376.111,311.2Z" transform="translate(-323.118 -292.847)" fill="#fff"/>
        <path id="Path_1825" data-name="Path 1825" d="M396.234,285.281a16.855,16.855,0,0,0,4.156-1.732l.52.312-.069,1.455c-.035.624-.069,4.849-.069,5.681v14.028c0,.831,0,2.078.069,2.494.138,1.073.727,1.073,1.905,1.073V309.7c-1.109-.035-2.183-.1-3.256-.1s-2.182.035-3.256.1v-1.074c1.178,0,1.8-.1,1.94-1.177.035-.278.035-.762.069-2.494V290.2c0-3.914-.034-3.914-2.009-3.949Z" transform="translate(-334.098 -283.341)" fill="#fff"/>
        <path id="Path_1826" data-name="Path 1826" d="M410.05,314.7a4.872,4.872,0,0,0,1.143,2.736,2.961,2.961,0,0,0,2.078.866,2.16,2.16,0,0,0,2.32-2.148c0-1.524-1.246-2.494-2.667-3.637-2.182-1.7-3.567-2.84-3.567-4.919,0-1.558,1.074-4.052,4.607-4.052a8.954,8.954,0,0,1,2.979.554l.416,3.706-1.109.069c-.207-1.109-.623-3.187-2.632-3.187a1.839,1.839,0,0,0-2.009,1.87c0,1.213.935,2.044,2.771,3.5,2.148,1.732,3.533,2.806,3.533,5.161,0,2.043-1.316,4.295-4.953,4.295a8.074,8.074,0,0,1-3.36-.658l-.693-4.052Z" transform="translate(-340.121 -292.847)" fill="#fff"/>
      </g>
      <g id="Group_4461" data-name="Group 4461" transform="translate(203.695 251.308)">
        <path id="Path_1827" data-name="Path 1827" d="M235.357,303.541c0,3.931-3.208,9.75-7.862,9.75-2.233,0-3.994-1.384-3.994-4.4,0-4.151,3.271-9.781,7.831-9.907C233.879,298.918,235.357,300.931,235.357,303.541Zm-9.4,5.881c0,.409,0,2.862,1.792,2.862,2.83,0,5.158-5.913,5.158-9.5,0-1.447-.44-2.925-2.013-2.8C227.683,300.27,225.953,306.938,225.953,309.422Z" transform="translate(-223.5 -290.081)" fill="#fff"/>
        <path id="Path_1828" data-name="Path 1828" d="M242.888,291.2a21.824,21.824,0,0,1,2.485-5.913,6.716,6.716,0,0,1,5.787-3.271c.472,0,2.516.031,2.516,1.195,0,.629-.534,1.636-1.226,1.636a1.032,1.032,0,0,1-.692-.283,4.5,4.5,0,0,1-.755-.786,1.459,1.459,0,0,0-1.2-.566c-2.422,0-3.68,4.371-4.655,7.957l3.271-.063-.629,1.164-2.925-.063-2.265,8.554a39.96,39.96,0,0,1-2.075,6.574c-1.667,3.553-4.183,5-6.573,5-1.415,0-2.485-.535-2.485-1.321,0-.472.5-1.6,1.321-1.6.755,0,.944.66,1.258,1.1a1.293,1.293,0,0,0,1.132.629c1.887,0,2.956-2.893,3.334-3.9.566-1.6,1.132-3.491,4.12-15.033l-2.233.031.283-1.132Z" transform="translate(-227.289 -282.021)" fill="#fff"/>
      </g>
      <g id="Group_4462" data-name="Group 4462" transform="translate(181.829 222.877)">
        <path id="Path_1829" data-name="Path 1829" d="M183.2,248.726a9.412,9.412,0,0,0,1.271,3.366,3.956,3.956,0,0,0,3.3,1.958A3.812,3.812,0,0,0,191.653,250c0-2.439-1.683-3.985-3.538-5.53-2.851-2.4-5.462-4.6-5.462-7.9,0-2.851,1.889-6.045,6.527-6.045a11.285,11.285,0,0,1,3.847.722c.275,2.542.378,3.126.653,4.672l-1.271.172c-.344-1.3-1.065-4.19-3.813-4.19a3.4,3.4,0,0,0-3.4,3.538c0,1.958,1.512,3.332,3.229,4.843,3.5,3.057,5.805,5.049,5.805,8.622,0,3.675-2.576,6.561-6.9,6.561a11.793,11.793,0,0,1-4.431-.859c-.377-2.37-.446-2.851-1.065-5.6Z" transform="translate(-181.829 -229.113)" fill="#fff"/>
        <path id="Path_1830" data-name="Path 1830" d="M213.134,248.515a24.652,24.652,0,0,0,4.535-.515v7.35c0,3.057,0,3.813.034,4.465.069,1.786.274,1.786,1.924,1.752V262.6a24.184,24.184,0,0,0-4.19,1.065l-.481-.24.172-1.924c-1.133,1-2.576,2.233-4.534,2.233-2.989,0-2.989-2.885-2.989-4.19v-4.328c0-.858,0-4.087-.1-4.706-.1-.858-.618-.893-1.58-.927v-1.065a22.947,22.947,0,0,0,4.225-.515v10.545c0,1.442,0,3.3,1.752,3.3a5.379,5.379,0,0,0,3.332-1.717v-5.461c0-.824-.035-1.649-.035-2.473-.1-2.439-.206-2.542-2.061-2.576Z" transform="translate(-193.279 -237.421)" fill="#fff"/>
        <path id="Path_1831" data-name="Path 1831" d="M230.87,248.716a31.714,31.714,0,0,0,3.847-1.306l.618.241-.1,1.545c.79-.481,1.031-.618,1.443-.824a3.943,3.943,0,0,1,2.2-.687c2.473,0,5.084,2.061,5.084,7.454,0,4.672-2.026,8.347-5.736,8.347a4.553,4.553,0,0,1-2.988-1.031v4.5c0,2.988.069,3.16,1.992,3.16v1.1c-1.133-.034-2.267-.068-3.366-.068-1.03,0-2.095.034-3.125.068v-1.1c1.958-.035,1.958-.069,1.992-3.366V251.635c0-1.855-.172-1.924-1.854-1.924Zm4.362,12.434a3.859,3.859,0,0,0,2.611,1.065c2.508,0,3.332-3.092,3.332-5.977,0-4.19-1.649-6.663-3.744-6.663a4.609,4.609,0,0,0-2.2.687Z" transform="translate(-205.072 -237.14)" fill="#fff"/>
        <path id="Path_1832" data-name="Path 1832" d="M260.346,254.329a11.871,11.871,0,0,0,1.133,5.427,3.317,3.317,0,0,0,3.091,2.061,4.049,4.049,0,0,0,3.263-1.992l.756.653c-.618.858-2.4,3.195-5.324,3.195-3.3,0-5.5-2.851-5.5-7.488,0-5.015,2.576-8.381,5.805-8.381,2.645,0,4.465,2.1,4.465,5.049,0,1.271-.378,1.477-1.2,1.477Zm4.259-1.2c.549,0,1.065-.069,1.065-.858a4.83,4.83,0,0,0-.721-2.542,1.7,1.7,0,0,0-1.442-.721c-1.855,0-2.782,2.2-3.057,4.122Z" transform="translate(-217.922 -237.327)" fill="#fff"/>
        <path id="Path_1833" data-name="Path 1833" d="M277.934,248.554a22.626,22.626,0,0,0,3.984-1.34l.653.206a36.621,36.621,0,0,0-.309,3.95c.618-1.512,1.786-4.053,3.675-4.053.584,0,1.477.275,1.477.962a5,5,0,0,1-.55,1.649c-.206.447-.446.618-.721.618a5.986,5.986,0,0,1-.962-.309,1.227,1.227,0,0,0-.378-.069c-1.065,0-1.649,1.339-1.89,1.958a13.443,13.443,0,0,0-.447,4.431v3.4c0,1.992.31,2.026,2.336,2.026v1.133c-1.271-.069-2.267-.1-3.435-.1-1.133,0-2.3.034-3.434.1v-1.1c1.924,0,2.026-.24,2.026-2.473V252.4c-.035-2.439-.035-2.783-1.2-2.817h-.824Z" transform="translate(-227.505 -237.047)" fill="#fff"/>
        <path id="Path_1834" data-name="Path 1834" d="M295.151,248.36a18.552,18.552,0,0,0,4.156-1.408l.549.31c-.069,1.27-.1,1.477-.1,2.954v8.69c0,2.783,0,2.988,1.889,3.023v1.1c-1.065-.068-2.164-.1-3.229-.1s-2.164.035-3.229.1v-1.133c1.89,0,2.027-.069,2.027-2.679v-7.522c0-2.233-.035-2.336-2.061-2.336Z" transform="translate(-235.688 -236.922)" fill="#fff"/>
        <path id="Path_1835" data-name="Path 1835" d="M306.969,248.716a21.115,21.115,0,0,0,4.019-1.306l.583.206a21.393,21.393,0,0,0-.1,2.3,35.623,35.623,0,0,1,3.572-2.2,3.655,3.655,0,0,1,2.4.343c1.821,1,1.855,2.92,1.889,4.4v5.908c0,.549,0,2.3.069,2.748.137.893.687.927,1.821,1v1.1c-1.237-.034-2.37-.1-3.71-.1-1.2,0-1.786.069-2.576.1v-1.133c1.2-.069,1.717-.1,1.786-1.408.035-.378.035-.893.069-3.229v-3.16c-.034-2.679-.069-4.74-2.026-4.74a6.308,6.308,0,0,0-3.263,1.546v7.969c0,2.576.034,3.022,1.786,3.022v1.133c-1.1-.069-2.232-.1-3.331-.1-1,0-2.026.034-3.023.1v-1.168c1.477,0,1.924-.206,1.992-1.236.034-.79.034-1.374.034-2.611v-3.4c0-1.82-.034-3.435-.1-4.156-.1-.893-.515-.893-1.889-.893Z" transform="translate(-241.288 -237.14)" fill="#fff"/>
        <path id="Path_1836" data-name="Path 1836" d="M333.65,245.927c2.851-1.374,3.263-4.259,3.435-5.324h1v4.877h3.16l-.206,1.34h-2.988l-.069,7.591c.034,2.988.034,4.225,1.34,4.225a3.073,3.073,0,0,0,1.546-.584l.447.928a6.86,6.86,0,0,1-3.332,1.1,2.414,2.414,0,0,1-2.1-1.065c-.515-.687-.515-1.34-.481-3.538l.137-8.622h-2.026Z" transform="translate(-253.921 -233.905)" fill="#fff"/>
        <path id="Path_1837" data-name="Path 1837" d="M350.361,254.329a11.878,11.878,0,0,0,1.133,5.427,3.318,3.318,0,0,0,3.092,2.061,4.05,4.05,0,0,0,3.263-1.992l.756.653c-.618.858-2.4,3.195-5.324,3.195-3.3,0-5.5-2.851-5.5-7.488,0-5.015,2.576-8.381,5.805-8.381,2.645,0,4.465,2.1,4.465,5.049,0,1.271-.378,1.477-1.2,1.477Zm4.26-1.2c.549,0,1.065-.069,1.065-.858a4.835,4.835,0,0,0-.721-2.542,1.7,1.7,0,0,0-1.442-.721c-1.855,0-2.782,2.2-3.057,4.122Z" transform="translate(-260.704 -237.327)" fill="#fff"/>
        <path id="Path_1838" data-name="Path 1838" d="M368.048,248.716a21.1,21.1,0,0,0,4.019-1.306l.584.206a21.252,21.252,0,0,0-.1,2.3,35.678,35.678,0,0,1,3.572-2.2,3.655,3.655,0,0,1,2.4.343c1.821,1,1.855,2.92,1.89,4.4v5.908c0,.549,0,2.3.069,2.748.137.893.687.927,1.82,1v1.1c-1.236-.034-2.37-.1-3.709-.1-1.2,0-1.787.069-2.576.1v-1.133c1.2-.069,1.717-.1,1.786-1.408.034-.378.034-.893.069-3.229v-3.16c-.035-2.679-.069-4.74-2.026-4.74a6.311,6.311,0,0,0-3.263,1.546v7.969c0,2.576.035,3.022,1.786,3.022v1.133c-1.1-.069-2.233-.1-3.332-.1-1,0-2.026.034-3.022.1v-1.168c1.477,0,1.924-.206,1.992-1.236.034-.79.034-1.374.034-2.611v-3.4c0-1.82-.034-3.435-.1-4.156-.1-.893-.515-.893-1.89-.893Z" transform="translate(-270.318 -237.14)" fill="#fff"/>
        <path id="Path_1839" data-name="Path 1839" d="M402.363,229.521a15.737,15.737,0,0,0,4.259-1.683l.584.274a50.038,50.038,0,0,0-.275,5.427c-.068,3.881-.068,8.587-.068,12.5,0,1.167,0,4.19.1,5.152.069.893.515.927,1.065.927h.756v1.1a27.416,27.416,0,0,0-4.087,1.2l-.481-.24.172-1.615a5.72,5.72,0,0,1-3.641,1.511c-3.331,0-4.912-3.709-4.912-7.694,0-4.053,1.512-8.072,5.6-8.072a4.249,4.249,0,0,1,2.919,1v-5.633c0-3.057-.069-3.057-1.992-3.057Zm1.992,14.048a6.542,6.542,0,0,0-.412-3.022,2.167,2.167,0,0,0-1.958-1.031c-3.263,0-3.3,4.981-3.3,5.908,0,5.084,1.855,6.869,3.572,6.869a2.749,2.749,0,0,0,2.095-1.031Z" transform="translate(-283.541 -227.838)" fill="#fff"/>
        <path id="Path_1840" data-name="Path 1840" d="M423.682,254.329a11.872,11.872,0,0,0,1.134,5.427,3.316,3.316,0,0,0,3.091,2.061,4.048,4.048,0,0,0,3.263-1.992l.756.653c-.619.858-2.4,3.195-5.324,3.195-3.3,0-5.5-2.851-5.5-7.488,0-5.015,2.576-8.381,5.805-8.381,2.645,0,4.466,2.1,4.466,5.049,0,1.271-.378,1.477-1.2,1.477Zm4.259-1.2c.55,0,1.065-.069,1.065-.858a4.834,4.834,0,0,0-.721-2.542,1.7,1.7,0,0,0-1.443-.721c-1.854,0-2.782,2.2-3.057,4.122Z" transform="translate(-295.552 -237.327)" fill="#fff"/>
        <path id="Path_1841" data-name="Path 1841" d="M441.37,248.716a21.1,21.1,0,0,0,4.019-1.306l.584.206a21.258,21.258,0,0,0-.1,2.3,35.617,35.617,0,0,1,3.572-2.2,3.655,3.655,0,0,1,2.4.343c1.821,1,1.855,2.92,1.89,4.4v5.908c0,.549,0,2.3.069,2.748.137.893.687.927,1.82,1v1.1c-1.236-.034-2.37-.1-3.71-.1-1.2,0-1.786.069-2.576.1v-1.133c1.2-.069,1.717-.1,1.786-1.408.035-.378.035-.893.069-3.229v-3.16c-.034-2.679-.069-4.74-2.026-4.74a6.309,6.309,0,0,0-3.263,1.546v7.969c0,2.576.034,3.022,1.786,3.022v1.133c-1.1-.069-2.233-.1-3.331-.1-1,0-2.026.034-3.022.1v-1.168c1.477,0,1.923-.206,1.992-1.236.034-.79.034-1.374.034-2.611v-3.4c0-1.82-.034-3.435-.1-4.156-.1-.893-.515-.893-1.889-.893Z" transform="translate(-305.166 -237.14)" fill="#fff"/>
        <path id="Path_1842" data-name="Path 1842" d="M468.052,245.927c2.85-1.374,3.263-4.259,3.435-5.324h1v4.877h3.16l-.207,1.34h-2.988l-.069,7.591c.034,2.988.034,4.225,1.34,4.225a3.075,3.075,0,0,0,1.545-.584l.447.928a6.858,6.858,0,0,1-3.331,1.1,2.413,2.413,0,0,1-2.1-1.065c-.516-.687-.516-1.34-.481-3.538l.137-8.622h-2.026Z" transform="translate(-317.799 -233.905)" fill="#fff"/>
      </g>
    </g>
    <g id="Group_4470" data-name="Group 4470" transform="translate(2210.293 628.935)">
      <circle id="Ellipse_2" data-name="Ellipse 2" cx="54.668" cy="54.668" r="54.668" transform="translate(4.707 4.065)" fill="#fff"/>
      <g id="Group_4464" data-name="Group 4464" transform="translate(4.707 4.065)">
        <path id="Path_1843" data-name="Path 1843" d="M92.678,33.476l9.414,47.33-4.77.949L87.907,34.425l-6.383,1.27-.846-4.256,23.1-4.6A54.711,54.711,0,0,0,41.719,7L52.738,62.4l-4.256.847L40.75,55.257,39.028,46.6l7.055,7.275L37.118,8.8A54.715,54.715,0,0,0,10.812,83.84l27.117-5.394-1.966-9.884,9.815-1.952c4.77-.949,8.082,1.175,8.916,5.362a5.761,5.761,0,0,1-2.017,5.645,5.788,5.788,0,0,1,4.455,4.822C58.04,87,55.408,90.1,51.049,90.963L40.823,93,38.782,82.736,13.1,87.844a54.714,54.714,0,0,0,74.847,17.5L73.532,32.86l4.77-.949,14.013,70.451a54.714,54.714,0,0,0,14.027-71.6ZM29.311,46.08,17.987,48.333l1.194,6.006,9.643-1.918.847,4.255-9.643,1.918L22,68.511l-4.77.949L12.37,45.026l16.095-3.2ZM40.188,64.894l-4.77.949-4.86-24.434,4.77-.949ZM34.838,38l-4.771.949-.949-4.771,4.77-.949ZM72.932,65.633,61.608,67.886l1.14,5.731L72.391,71.7l.846,4.256-9.643,1.918,1.181,5.937L76.1,81.556l.847,4.256-16.1,3.2-4.86-24.435,16.095-3.2Zm-2.675-9.147A9.073,9.073,0,0,1,64.27,60.1l-8.82,1.754L50.589,37.424l8.82-1.755a9.075,9.075,0,0,1,6.916,1.05c3.291,2.2,3.686,5.617,4.416,9.29S72.456,53.2,70.257,56.487Zm7.556-27.037-4.771.949-.949-4.771,4.771-.949Z" transform="translate(-4.707 -4.065)" fill="#d03838"/>
        <path id="Path_1844" data-name="Path 1844" d="M103.054,70.09l-3.6.717,3.167,15.924,3.6-.717a4.343,4.343,0,0,0,3.268-2.22c.674-1.276.463-3.053-.274-6.76s-1.182-5.223-2.293-6.144A4.342,4.342,0,0,0,103.054,70.09Z" transform="translate(-47.951 -34.142)" fill="#d03838"/>
        <path id="Path_1845" data-name="Path 1845" d="M77.366,152.15l4.976-.99a3.067,3.067,0,1,0-1.195-6.006l-4.976.99Z" transform="translate(-37.326 -68.421)" fill="#d03838"/>
        <path id="Path_1846" data-name="Path 1846" d="M80.925,129.2c-.334-1.681-1.692-2.588-3.717-2.186l-4.668.928,1.12,5.628,4.667-.928C80.353,132.244,81.26,130.886,80.925,129.2Z" transform="translate(-35.669 -60.142)" fill="#d03838"/>
      </g>
      <g id="Group_4466" data-name="Group 4466" transform="translate(132.31 57.837)">
        <g id="Group_4465" data-name="Group 4465">
          <path id="Path_1847" data-name="Path 1847" d="M239.46,108.373a5.215,5.215,0,0,1,5.232-5.382,4.018,4.018,0,0,1,3.907,2.391l-1.53.547a2.527,2.527,0,0,0-2.459-1.517,3.647,3.647,0,0,0-3.47,3.866A2.6,2.6,0,0,0,243.913,111a3.159,3.159,0,0,0,2.281-1.052l1.216.86a4.7,4.7,0,0,1-3.579,1.612C241.345,112.417,239.46,110.832,239.46,108.373Z" transform="translate(-239.46 -102.991)" fill="#fff"/>
          <path id="Path_1848" data-name="Path 1848" d="M286.624,108.373a5.25,5.25,0,0,1,5.232-5.382c2.431,0,4.358,1.517,4.358,4.03a5.259,5.259,0,0,1-5.219,5.4C288.55,112.417,286.624,110.887,286.624,108.373Zm7.91-1.243a2.605,2.605,0,0,0-2.787-2.718,3.634,3.634,0,0,0-3.442,3.866A2.609,2.609,0,0,0,291.078,111,3.645,3.645,0,0,0,294.534,107.13Z" transform="translate(-260.987 -102.991)" fill="#fff"/>
          <path id="Path_1849" data-name="Path 1849" d="M336.218,109.429a4.225,4.225,0,0,1,.069-.656l1.215-5.505h1.626l-1.216,5.478a2.984,2.984,0,0,0-.054.491,1.929,1.929,0,0,0,2.158,1.9c1.516,0,2.226-.942,2.555-2.39l1.2-5.478H345.4l-1.216,5.505c-.492,2.226-1.6,3.77-4.166,3.77C337.557,112.543,336.218,111.3,336.218,109.429Z" transform="translate(-283.624 -103.117)" fill="#fff"/>
          <path id="Path_1850" data-name="Path 1850" d="M389.395,112.379l-3.292-6.6-1.462,6.6h-1.6l2.008-9.111h1.639l3.237,6.393,1.421-6.393h1.6l-2.008,9.111Z" transform="translate(-304.996 -103.117)" fill="#fff"/>
          <path id="Path_1851" data-name="Path 1851" d="M433.9,112.379l1.708-7.7h-2.759l.3-1.407h7.116l-.3,1.407h-2.76l-1.707,7.7Z" transform="translate(-327.731 -103.117)" fill="#fff"/>
          <path id="Path_1852" data-name="Path 1852" d="M479.256,112.379l.833-3.784-2.363-5.327h1.734l1.639,3.893,3.36-3.893h1.926l-4.7,5.327-.833,3.784Z" transform="translate(-348.213 -103.117)" fill="#fff"/>
        </g>
      </g>
      <g id="Group_4467" data-name="Group 4467" transform="translate(132.327 82.033)">
        <path id="Path_1853" data-name="Path 1853" d="M239.492,154.742c0-3.814,2.888-6.387,6.683-6.387a5.693,5.693,0,0,1,5.387,3.3l-2.74,1.314a2.964,2.964,0,0,0-2.647-1.8,3.575,3.575,0,0,0,0,7.146,2.964,2.964,0,0,0,2.647-1.8l2.74,1.3a5.764,5.764,0,0,1-5.387,3.314C242.38,161.129,239.492,158.537,239.492,154.742Z" transform="translate(-239.492 -147.892)" fill="#fff"/>
        <path id="Path_1854" data-name="Path 1854" d="M267.887,163.751v-.888a3.694,3.694,0,0,1-2.777,1.11,2.964,2.964,0,0,1-3.073-2.944,2.816,2.816,0,0,1,3.073-2.887,3.581,3.581,0,0,1,2.777,1.055v-.888c0-.778-.666-1.314-1.814-1.314a3.91,3.91,0,0,0-2.5.962l-1.056-1.98a6.3,6.3,0,0,1,4.054-1.389c2.147,0,4.165.8,4.165,3.573v5.591Zm0-2.3v-.8a1.974,1.974,0,0,0-1.592-.629c-.74,0-1.426.333-1.426,1.037s.685,1.037,1.426,1.037A1.983,1.983,0,0,0,267.887,161.456Z" transform="translate(-249.782 -150.737)" fill="#fff"/>
        <path id="Path_1855" data-name="Path 1855" d="M280.542,163.736v-8.942h2.851v1.093a3.916,3.916,0,0,1,2.8-1.333v2.74a2.4,2.4,0,0,0-.7-.074,2.9,2.9,0,0,0-2.092.815v5.7Z" transform="translate(-258.229 -150.722)" fill="#fff"/>
        <path id="Path_1856" data-name="Path 1856" d="M290.925,159.271a4.6,4.6,0,0,1,4.739-4.683c2.647,0,4.572,1.944,4.572,4.98v.648h-6.368a2.1,2.1,0,0,0,2.24,1.463,3.719,3.719,0,0,0,2.185-.759l1.24,1.87a5.834,5.834,0,0,1-3.74,1.184A4.563,4.563,0,0,1,290.925,159.271Zm4.739-2.388a1.666,1.666,0,0,0-1.833,1.388h3.684C297.441,157.642,296.979,156.883,295.664,156.883Z" transform="translate(-262.968 -150.737)" fill="#fff"/>
        <path id="Path_1857" data-name="Path 1857" d="M308.467,159.271a4.6,4.6,0,0,1,4.739-4.683c2.647,0,4.572,1.944,4.572,4.98v.648H311.41a2.1,2.1,0,0,0,2.24,1.463,3.719,3.719,0,0,0,2.185-.759l1.24,1.87a5.834,5.834,0,0,1-3.74,1.184A4.563,4.563,0,0,1,308.467,159.271Zm4.739-2.388a1.666,1.666,0,0,0-1.833,1.388h3.684C314.983,157.642,314.521,156.883,313.206,156.883Z" transform="translate(-270.975 -150.737)" fill="#fff"/>
        <path id="Path_1858" data-name="Path 1858" d="M327.023,163.736v-8.942h2.851v1.093a3.914,3.914,0,0,1,2.8-1.333v2.74a2.4,2.4,0,0,0-.7-.074,2.9,2.9,0,0,0-2.092.815v5.7Z" transform="translate(-279.444 -150.722)" fill="#fff"/>
        <path id="Path_1859" data-name="Path 1859" d="M346.6,161.077V148.729h9.052v2.778h-5.868v1.925h5.739v2.777h-5.739V158.3h5.868v2.777Z" transform="translate(-288.382 -148.063)" fill="#fff"/>
        <path id="Path_1860" data-name="Path 1860" d="M371.158,161.077v-1.037a3.418,3.418,0,0,1-2.647,1.259c-2.2,0-3.943-1.666-3.943-4.7,0-2.925,1.7-4.683,3.943-4.683a3.3,3.3,0,0,1,2.647,1.277v-4.462h2.833v12.348Zm0-3.11v-2.74a2.33,2.33,0,0,0-1.721-.8,2.187,2.187,0,0,0,0,4.35A2.348,2.348,0,0,0,371.158,157.967Z" transform="translate(-296.581 -148.063)" fill="#fff"/>
        <path id="Path_1861" data-name="Path 1861" d="M390.467,163.938v-1.074a4.034,4.034,0,0,1-3.091,1.3,2.613,2.613,0,0,1-2.943-2.8V155h2.851v5.183c0,1.093.555,1.463,1.481,1.463a2.132,2.132,0,0,0,1.7-.87V155h2.852v8.942Z" transform="translate(-305.648 -150.924)" fill="#fff"/>
        <path id="Path_1862" data-name="Path 1862" d="M402.348,159.271a4.59,4.59,0,0,1,4.869-4.683,4.258,4.258,0,0,1,3.665,1.648l-1.851,1.721a1.956,1.956,0,0,0-1.685-.851,2.176,2.176,0,1,0,1.685,3.48l1.851,1.74a4.307,4.307,0,0,1-3.665,1.648A4.6,4.6,0,0,1,402.348,159.271Z" transform="translate(-313.825 -150.737)" fill="#fff"/>
        <path id="Path_1863" data-name="Path 1863" d="M424.05,163.751v-.888a3.694,3.694,0,0,1-2.777,1.11,2.964,2.964,0,0,1-3.073-2.944,2.816,2.816,0,0,1,3.073-2.887,3.58,3.58,0,0,1,2.777,1.055v-.888c0-.778-.666-1.314-1.814-1.314a3.91,3.91,0,0,0-2.5.962l-1.056-1.98a6.3,6.3,0,0,1,4.054-1.389c2.148,0,4.165.8,4.165,3.573v5.591Zm0-2.3v-.8a1.974,1.974,0,0,0-1.592-.629c-.74,0-1.425.333-1.425,1.037s.685,1.037,1.425,1.037A1.983,1.983,0,0,0,424.05,161.456Z" transform="translate(-321.061 -150.737)" fill="#fff"/>
        <path id="Path_1864" data-name="Path 1864" d="M436.412,159.48v-4.073h-1.481v-2.462h1.481V150.5h2.851v2.443h1.814v2.462h-1.814v3.277a.807.807,0,0,0,.777.907,1.107,1.107,0,0,0,.722-.222l.556,2.148a3.117,3.117,0,0,1-2.111.592C437.393,162.108,436.412,161.2,436.412,159.48Z" transform="translate(-328.698 -148.872)" fill="#fff"/>
        <path id="Path_1865" data-name="Path 1865" d="M447.5,149.133a1.639,1.639,0,0,1,3.277,0,1.639,1.639,0,1,1-3.277,0Zm.2,11.385v-8.942h2.851v8.942Z" transform="translate(-334.434 -147.504)" fill="#fff"/>
        <path id="Path_1866" data-name="Path 1866" d="M454.536,159.271a4.872,4.872,0,1,1,4.85,4.7A4.594,4.594,0,0,1,454.536,159.271Zm6.813,0a1.957,1.957,0,1,0-1.963,2.185A1.971,1.971,0,0,0,461.349,159.271Z" transform="translate(-337.646 -150.737)" fill="#fff"/>
        <path id="Path_1867" data-name="Path 1867" d="M480.014,163.751v-5.165a1.292,1.292,0,0,0-1.463-1.481,2.207,2.207,0,0,0-1.74.87v5.776H473.96V154.81h2.851V155.9a4.055,4.055,0,0,1,3.11-1.314,2.631,2.631,0,0,1,2.943,2.833v6.331Z" transform="translate(-346.512 -150.737)" fill="#fff"/>
      </g>
      <g id="Group_4468" data-name="Group 4468" transform="translate(133.292 100.851)">
        <path id="Path_1868" data-name="Path 1868" d="M241.267,182.377h2.243c1.23,0,1.8.118,2.331.708a1.68,1.68,0,0,1,.433,1.2,1.643,1.643,0,0,1-.846,1.465,1.677,1.677,0,0,1,1.2,1.692,2.093,2.093,0,0,1-.669,1.584,3.035,3.035,0,0,1-2.38.63h-2.312Zm1.78,2.764h.659c.255,0,.787,0,.787-.58,0-.551-.5-.551-.787-.551h-.659Zm0,2.883h.876c.236,0,.925,0,.925-.7,0-.629-.629-.629-.925-.629h-.876Z" transform="translate(-241.267 -182.239)" fill="#fff"/>
        <path id="Path_1869" data-name="Path 1869" d="M259.153,182.377v4.4c0,.492.029,1.387.944,1.387s.925-.807.925-1.387v-4.4h1.859v4.4a2.784,2.784,0,0,1-.728,2.233,2.721,2.721,0,0,1-2.036.787,2.929,2.929,0,0,1-2.1-.777,2.774,2.774,0,0,1-.728-2.243v-4.4Z" transform="translate(-248.582 -182.239)" fill="#fff"/>
        <path id="Path_1870" data-name="Path 1870" d="M274.444,182.377H276.3v7.279h-1.859Z" transform="translate(-256.41 -182.239)" fill="#fff"/>
        <path id="Path_1871" data-name="Path 1871" d="M284.79,182.377h1.859v5.647H288.8v1.633H284.79Z" transform="translate(-261.133 -182.239)" fill="#fff"/>
        <path id="Path_1872" data-name="Path 1872" d="M297.678,182.377h2.41a3.553,3.553,0,0,1,3.217,1.357,3.724,3.724,0,0,1,.669,2.262c0,1.987-.984,3.66-3.748,3.66h-2.548Zm1.859,5.647h.8c1.387,0,1.78-.964,1.78-2a2.568,2.568,0,0,0-.354-1.348,1.533,1.533,0,0,0-1.417-.669h-.806Z" transform="translate(-267.015 -182.239)" fill="#fff"/>
        <path id="Path_1873" data-name="Path 1873" d="M326.7,187.01l-2.174-4.633h2.017l1.082,2.922,1.092-2.922h2l-2.154,4.633v2.647H326.7Z" transform="translate(-279.269 -182.239)" fill="#fff"/>
        <path id="Path_1874" data-name="Path 1874" d="M344,182.123a3.778,3.778,0,1,1-3.836,3.866,4.1,4.1,0,0,1,.285-1.554A3.783,3.783,0,0,1,344,182.123Zm.029,5.922a2.15,2.15,0,1,0-2.007-2.164A2.041,2.041,0,0,0,344.025,188.045Z" transform="translate(-286.405 -182.123)" fill="#fff"/>
        <path id="Path_1875" data-name="Path 1875" d="M362.327,182.377v4.4c0,.492.03,1.387.944,1.387s.925-.807.925-1.387v-4.4h1.859v4.4a2.782,2.782,0,0,1-.728,2.233,2.721,2.721,0,0,1-2.036.787,2.928,2.928,0,0,1-2.095-.777,2.772,2.772,0,0,1-.728-2.243v-4.4Z" transform="translate(-295.675 -182.239)" fill="#fff"/>
        <path id="Path_1876" data-name="Path 1876" d="M377.608,182.377h2.3a3.227,3.227,0,0,1,2.243.521,2.521,2.521,0,0,1,.895,1.987,2.209,2.209,0,0,1-1.81,2.292l1.977,2.479H381.09l-1.682-2.351h-.02v2.351h-1.78Zm1.78,3.659h.659c1.092,0,1.22-.689,1.22-1.043,0-.658-.482-.983-1.2-.983h-.678Z" transform="translate(-303.498 -182.239)" fill="#fff"/>
        <path id="Path_1877" data-name="Path 1877" d="M403.71,182.377h3.974v1.633h-2.193v1.239h2.114v1.633h-2.114v2.774H403.71Z" transform="translate(-315.412 -182.239)" fill="#fff"/>
        <path id="Path_1878" data-name="Path 1878" d="M419.075,182.377v4.4c0,.492.03,1.387.944,1.387s.925-.807.925-1.387v-4.4H422.8v4.4a2.784,2.784,0,0,1-.727,2.233,2.723,2.723,0,0,1-2.037.787,2.928,2.928,0,0,1-2.095-.777,2.772,2.772,0,0,1-.728-2.243v-4.4Z" transform="translate(-321.577 -182.239)" fill="#fff"/>
        <path id="Path_1879" data-name="Path 1879" d="M434.545,184.01h-1.436v-1.633h4.721v1.633H436.4v5.647h-1.859Z" transform="translate(-328.831 -182.239)" fill="#fff"/>
        <path id="Path_1880" data-name="Path 1880" d="M449.25,182.377v4.4c0,.492.029,1.387.944,1.387s.925-.807.925-1.387v-4.4h1.859v4.4a2.782,2.782,0,0,1-.728,2.233,2.721,2.721,0,0,1-2.036.787,2.928,2.928,0,0,1-2.095-.777,2.772,2.772,0,0,1-.728-2.243v-4.4Z" transform="translate(-335.35 -182.239)" fill="#fff"/>
        <path id="Path_1881" data-name="Path 1881" d="M464.531,182.377h2.3a3.228,3.228,0,0,1,2.243.521,2.523,2.523,0,0,1,.895,1.987,2.209,2.209,0,0,1-1.81,2.292l1.977,2.479h-2.124l-1.682-2.351h-.02v2.351h-1.781Zm1.781,3.659h.659c1.092,0,1.22-.689,1.22-1.043,0-.658-.482-.983-1.2-.983h-.678Z" transform="translate(-343.173 -182.239)" fill="#fff"/>
        <path id="Path_1882" data-name="Path 1882" d="M480.822,182.377h4.043v1.633H482.6v1.131H484.8v1.633H482.6v1.25h2.262v1.633h-4.043Z" transform="translate(-350.609 -182.239)" fill="#fff"/>
      </g>
      <path id="Path_1883" data-name="Path 1883" d="M240.636,28.989H248.8V43.372h.086l9.026-14.383h8.551L255.882,44.926l11.272,16.023h-9.544l-8.724-13.821H248.8V60.949h-8.163Z" transform="translate(-107.687 -11.376)" fill="url(#linear-gradient)"/>
      <path id="Path_1884" data-name="Path 1884" d="M314.8,28.989h17.751v7.17h-9.934v4.967h9.631v7.168h-9.631v5.486h9.934v7.17H314.8Z" transform="translate(-141.54 -11.376)" fill="url(#linear-gradient)"/>
      <path id="Path_1885" data-name="Path 1885" d="M374.592,28.989H384.7c5.615,0,7.774.691,9.847,2.29A11.068,11.068,0,0,1,398.475,40c0,3.672-1.9,9.071-7.946,10.064l8.681,10.884h-9.329L382.5,50.627h-.086V60.949h-7.817Zm7.817,16.066H385.3c4.794,0,5.355-3.023,5.355-4.578,0-2.894-2.116-4.319-5.269-4.319h-2.98Z" transform="translate(-168.829 -11.376)" fill="url(#linear-gradient)"/>
      <path id="Path_1886" data-name="Path 1886" d="M442.893,28.989h7.04l12.352,20.084.086-.088-.346-20h7.818v31.96H462.76L450.581,41.514l-.086.042.216,19.393h-7.817Z" transform="translate(-200.004 -11.376)" fill="url(#linear-gradient)"/>
      <line id="Line_26" data-name="Line 26" x2="136.79" transform="translate(133.048 75.217)" fill="none" stroke="#96999c" stroke-miterlimit="10" stroke-width="1.407"/>
    </g>
  </g>
</svg>
