<svg xmlns="http://www.w3.org/2000/svg" xmlns:xlink="http://www.w3.org/1999/xlink" width="274.803" height="49.623" viewBox="0 0 274.803 49.623">
  <defs>
    <linearGradient id="linear-gradient" x1="0.5" y1="0.977" x2="0.5" y2="0.357" gradientUnits="objectBoundingBox">
      <stop offset="0" stop-color="#289238"/>
      <stop offset="1" stop-color="#8abb2a"/>
    </linearGradient>
  </defs>
  <g id="Group_4426" data-name="Group 4426" transform="translate(1062.441 -1443.94)">
    <g id="Group_4424" data-name="Group 4424" transform="translate(-1062.441 1443.94)">
      <path id="Path_1758" data-name="Path 1758" d="M-1022.514,1457.288l4.273,21.481-2.165.431-4.273-21.481-2.9.576-.384-1.931,10.485-2.086a24.811,24.811,0,0,0-24.994-9.857,25.037,25.037,0,0,0-3.173.851l5,25.142-1.931.384-3.509-3.625-.782-3.929,3.2,3.3-4.069-20.457a24.816,24.816,0,0,0-14.229,27.5,24.808,24.808,0,0,0,2.289,6.556l12.307-2.448-.892-4.486,4.455-.886c2.165-.431,3.668.533,4.046,2.434a2.614,2.614,0,0,1-.915,2.562,2.627,2.627,0,0,1,2.022,2.189,3.125,3.125,0,0,1-2.76,3.869l-4.642.923-.926-4.657-11.655,2.318a24.815,24.815,0,0,0,25.841,11.118,24.756,24.756,0,0,0,8.13-3.177l-6.543-32.9,2.165-.431,6.36,31.975a24.809,24.809,0,0,0,9.379-24.642,24.77,24.77,0,0,0-3.013-7.857Zm-28.76,5.721-5.14,1.022.542,2.726,4.377-.871.384,1.932-4.377.87.9,4.5-2.165.431-2.206-11.09,7.3-1.453Zm4.937,8.539-2.165.431-2.206-11.09,2.165-.431Zm-2.428-12.207-2.165.431-.431-2.165,2.165-.431Zm17.29,12.543-5.14,1.022.517,2.6,4.377-.87.384,1.931-4.377.871.536,2.694,5.14-1.022.384,1.931-7.305,1.453-2.206-11.09,7.305-1.453Zm-1.214-4.151a4.117,4.117,0,0,1-2.718,1.642l-4,.8-2.206-11.09,4-.8a4.118,4.118,0,0,1,3.139.477c1.494,1,1.673,2.55,2,4.216S-1031.692,1466.238-1032.69,1467.732Zm3.429-12.271-2.165.431-.431-2.165,2.165-.431Z" transform="translate(1062.441 -1443.94)" fill="#d03838"/>
      <path id="Path_1759" data-name="Path 1759" d="M-995.348,1489.525l-1.636.325,1.438,7.227,1.636-.325a1.972,1.972,0,0,0,1.483-1.008c.306-.579.21-1.386-.124-3.068s-.536-2.371-1.041-2.789A1.971,1.971,0,0,0-995.348,1489.525Z" transform="translate(1020.358 -1473.209)" fill="#d03838"/>
      <path id="Path_1760" data-name="Path 1760" d="M-1012.525,1544.571l2.259-.449a1.339,1.339,0,0,0,1.176-1.659,1.327,1.327,0,0,0-1.718-1.067l-2.259.449Z" transform="translate(1030.698 -1506.57)" fill="#d03838"/>
      <path id="Path_1761" data-name="Path 1761" d="M-1011.77,1529.857a1.283,1.283,0,0,0-1.687-.992l-2.119.421.508,2.554,2.119-.421A1.283,1.283,0,0,0-1011.77,1529.857Z" transform="translate(1032.31 -1498.512)" fill="#d03838"/>
    </g>
    <g id="Group_4425" data-name="Group 4425" transform="translate(-1002.421 1454.528)">
      <text id="COUNTY" transform="translate(0 30.941)" fill="#145629" font-size="8" font-family="SegoeUI-SemiboldItalic, Segoe UI" font-weight="600" font-style="italic" letter-spacing="1.3em"><tspan x="0" y="0">COUNTY</tspan></text>
      <path id="Path_1762" data-name="Path 1762" d="M-892.074,1473.592h5.6v9.87h.059l6.195-9.87h5.869l-7.262,10.937,7.736,11h-6.55l-5.987-9.485h-.059v9.485h-5.6Z" transform="translate(892.889 -1473.592)" fill="url(#linear-gradient)"/>
      <path id="Path_1763" data-name="Path 1763" d="M-825.475,1473.592h12.182v4.92h-6.817v3.409h6.61v4.919h-6.61v3.765h6.817v4.92h-12.182Z" transform="translate(850.071 -1473.592)" fill="url(#linear-gradient)"/>
      <path id="Path_1764" data-name="Path 1764" d="M-769.867,1473.592h6.936c3.853,0,5.335.474,6.758,1.572a7.6,7.6,0,0,1,2.7,5.986c0,2.52-1.3,6.225-5.454,6.906l5.958,7.469h-6.4l-5.068-7.083h-.059v7.083h-5.365Zm5.365,11.026h1.986c3.29,0,3.675-2.075,3.675-3.142,0-1.987-1.452-2.964-3.616-2.964H-764.5Z" transform="translate(814.319 -1473.592)" fill="url(#linear-gradient)"/>
      <path id="Path_1765" data-name="Path 1765" d="M-709.9,1473.592h4.831l8.477,13.783.059-.06-.237-13.723h5.365v21.933h-4.861l-8.358-13.338-.059.029.148,13.309H-709.9Z" transform="translate(775.766 -1473.592)" fill="url(#linear-gradient)"/>
    </g>
    <text id="Career_Education" data-name="Career Education" transform="translate(-901.441 1468.939)" fill="#009cdc" font-size="16" font-family="SegoeUI, Segoe UI" letter-spacing="-0.03em"><tspan x="0" y="0">Career Education</tspan></text>
    <text id="BUILD_YOUR_FUTURE" data-name="BUILD YOUR FUTURE" transform="translate(-899.638 1479.124)" fill="#d03838" font-size="8.5" font-family="SegoeUI, Segoe UI" letter-spacing="0.24em"><tspan x="0" y="0">BUILD YOUR FUTURE</tspan></text>
  </g>
</svg>
